<?xml version="1.0" standalone="no"?>
<!DOCTYPE svg PUBLIC "-//W3C//DTD SVG 1.1//EN" "http://www.w3.org/Graphics/SVG/1.1/DTD/svg11.dtd" [<!ENTITY nbsp " ">]>
<svg xmlns="http://www.w3.org/2000/svg" data-noselect="" viewBox="53.889312744140994 215.12744140625 660.960496111249 167.99999923162" width="400" height="100" preserveAspectRatio="xMidYMid meet" version="1.1" style="background: rgba(255, 255, 255, 0);"><defs><pattern id="wm_tile" x="0" y="0" width="21%" height="83%" patternunits="objectBoundingBox"><g id="wm_lm" transform="translate(-188.000000, -323.000000)" fill="#cccccc"><text font-size="10" transform="translate(270.490979, 373.245789) rotate(-390.000000) translate(-270.490979, -373.245789)"/></g></pattern></defs><rect x="53.889312744140994" y="215.12744140625" width="100%" height="100%" style="fill: url(#wm_tile);"/><defs/> <g id="shape_ejdWc8iZvA" transform="translate(346.51902008057,245.12744140625) rotate(0,53.999996158119,53.999999615812) scale(1,1)" filter="" style="cursor: move; opacity: 1;"><g><rect fill="rgba(0,0,0,0)" width="127.99999231624" height="127.99999923162" x="-10" y="-10"/><svg xmlns="http://www.w3.org/2000/svg" viewBox="-0.021932994946837425 -0.02193274162709713 14.893864631652832 14.893865585327148" width="107.99999231624" height="107.99999923162" preserveAspectRatio="none" data-parent="shape_ejdWc8iZvA"><g><g><path fill="#b3b3b3" d="M5.045 7.423L7.428 5.04 9.81 7.423 7.428 9.806z"/><path d="M1.95 9.81L.3 8.16a1 1 0 0 1 0-1.47L1.95 5l2.74-2.69 2.38 2.38-2.74 2.74 2.74 2.74-2.38 2.38z" fill="#4d4d4d" fill-rule="evenodd"/><path d="M8.16.3L12.91 5l1.64 1.64a1 1 0 0 1 0 1.47l-1.64 1.7-4.75 4.74a1 1 0 0 1-1.47 0L5 12.91l5.48-5.48L5 1.95 6.69.3a1 1 0 0 1 1.47 0z" fill="#da251d" fill-rule="evenodd"/></g></g></svg></g> <!----></g><g id="shapge_UQvvuoKX4A" transform="translate(83.889312744141,271.93603515625) rotate(0,138.5,35.19140625) scale(1,1)" filter="" style="cursor: move; opacity: 1;"><g><svg xmlns="http://www.w3.org/2000/svg" xmlns:xlink="http://www.w3.org/1999/xlink" version="1.1" overflow="hidden" style="top:0; left: 0" width="254.6337890625" height="70.3828125" viewBox="0 0 249.6337890625 74.07421875" preserveAspectRatio="none" data-parent="shapge_UQvvuoKX4A"><rect fill="rgba(0,0,0,0)" width="254.6337890625" height="70.3828125"/> <rect opacity="0"/><g transform="translate(0 0)" data-width="244.6337890625"><path fill="#C7000A" d="M1.23 1.42L9.41 1.42L14.89-11.32L37.71-11.32L43.19 1.42L51.37 1.42L30.64-46.82L21.96-46.82L1.23 1.42ZM35.81-15.75L16.80-15.75L26.27-37.90L35.81-15.75Z" transform="translate(5 54.140625)"/><path fill="#C7000A" d="M36.91-46.82L44.42-46.82L44.42-14.89Q44.42-7.75 38.33-2.71L38.33-2.71Q32.18 2.34 23.44 2.34L23.44 2.34Q14.77 2.34 8.61-2.71L8.61-2.71Q2.46-7.75 2.46-14.89L2.46-14.89L2.46-46.82L9.97-46.82L9.97-17.10Q9.97-11.50 13.90-7.57L13.90-7.57Q17.90-3.63 23.44-3.63L23.44-3.63Q29.04-3.63 32.98-7.57L32.98-7.57Q36.91-11.50 36.91-17.10L36.91-17.10L36.91-46.82Z" transform="translate(57.6025390625 54.140625)"/><path fill="#C7000A" d="M2.46-42.45L2.46-46.82L44.42-46.82L44.42-42.45L27.19-42.45L27.19 1.42L19.69 1.42L19.69-42.45L2.46-42.45Z" transform="translate(104.4833984375 54.140625)"/><path fill="#C7000A" d="M2.46 1.42L2.46-46.82L9.97-46.82L9.97-24.92L36.91-24.92L36.91-46.82L44.42-46.82L44.42 1.42L36.91 1.42L36.91-20.55L9.97-20.55L9.97 1.42L2.46 1.42Z" transform="translate(151.3642578125 54.140625)"/><path fill="#C7000A" d="M26.27-47.80Q37.10-47.80 44.54-39.93L44.54-39.93L41.10-36.54Q35.56-41.84 27.93-41.84L27.93-41.84Q20.00-41.84 14.40-36.24L14.40-36.24Q8.80-30.64 8.80-22.70L8.80-22.70Q8.80-14.83 14.40-9.23L14.40-9.23Q20.00-3.63 27.93-3.63L27.93-3.63Q35.56-3.63 41.10-8.86L41.10-8.86L44.54-5.54Q37.10 2.34 26.27 2.34L26.27 2.34Q15.93 2.34 8.55-4.98L8.55-4.98Q1.23-12.30 1.23-22.70L1.23-22.70Q1.23-33.10 8.55-40.42L8.55-40.42Q15.93-47.80 26.27-47.80L26.27-47.80Z" transform="translate(198.2451171875 54.140625)"/></g></svg></g> <!----></g><g id="shape_qK71L8GiFX" transform="translate(465.16133229289,271.93606567383) rotate(0,109.90625,35.19140625) scale(1,1)" filter="" style="cursor: move; opacity: 1;"><g><svg xmlns="http://www.w3.org/2000/svg" xmlns:xlink="http://www.w3.org/1999/xlink" version="1.1" overflow="hidden" style="top:0; left: 0" width="219.6884765625" height="70.3828125" viewBox="0 0 214.6884765625 74.07421875" preserveAspectRatio="none" data-parent="shape_qK71L8GiFX"><rect fill="rgba(0,0,0,0)" width="219.6884765625" height="70.3828125"/> <rect opacity="0"/><g transform="translate(0 0)" data-width="209.6884765625"><path fill="#4D4D4D" d="M2.46-46.82L2.46 1.42L36.79 1.42L36.79-2.95L9.97-2.95L9.97-46.82L2.46-46.82Z" transform="translate(5 54.140625)"/><path fill="#4D4D4D" d="M2.46 1.42L2.46-46.82L9.97-46.82L9.97 1.42L2.46 1.42Z" transform="translate(44.251953125 54.140625)"/><path fill="#4D4D4D" d="M48.23-35.44L48.23 1.48L55.74 1.48L55.74-46.82L45.71-46.82L29.10-15.13L12.55-46.82L2.46-46.82L2.46 1.48L10.03 1.48L10.03-35.44L25.84-5.17L32.42-5.17L48.23-35.44Z" transform="translate(56.6796875 54.140625)"/><path fill="#4D4D4D" d="M2.46-46.82L2.46 1.42L27.38 1.42Q33.04 1.42 37.04-2.58L37.04-2.58Q40.97-6.58 40.97-12.24L40.97-12.24Q40.97-20.24 33.96-24.18L33.96-24.18Q38.82-27.99 38.82-34.15L38.82-34.15Q38.82-39.44 35.07-43.13L35.07-43.13Q31.38-46.82 26.15-46.82L26.15-46.82L2.46-46.82ZM9.97-21.47L24.24-21.47Q28.05-21.47 30.76-18.76L30.76-18.76Q33.47-16.06 33.47-12.24L33.47-12.24Q33.47-8.37 30.76-5.66L30.76-5.66Q28.05-2.95 24.24-2.95L24.24-2.95L9.97-2.95L9.97-21.47ZM23.01-25.84L9.97-25.84L9.97-42.45L23.01-42.45Q26.46-42.45 28.85-40.05L28.85-40.05Q31.32-37.59 31.32-34.15L31.32-34.15Q31.32-30.70 28.85-28.30L28.85-28.30Q26.46-25.84 23.01-25.84L23.01-25.84Z" transform="translate(114.880859375 54.140625)"/><path fill="#4D4D4D" d="M26.27-43.44L26.27-43.44Q19.01-43.44 13.90-37.41L13.90-37.41Q8.74-31.32 8.74-22.76L8.74-22.76Q8.74-14.21 13.90-8.18L13.90-8.18Q19.01-2.09 26.27-2.09L26.27-2.09Q33.53-2.09 38.70-8.18L38.70-8.18Q43.80-14.21 43.80-22.76L43.80-22.76Q43.80-31.32 38.70-37.41L38.70-37.41Q33.53-43.44 26.27-43.44ZM26.27-47.87Q36.67-47.87 43.99-40.48L43.99-40.48Q51.37-33.16 51.37-22.76L51.37-22.76Q51.37-12.37 43.99-5.04L43.99-5.04Q36.67 2.28 26.27 2.28L26.27 2.28Q15.87 2.28 8.55-5.04L8.55-5.04Q1.23-12.37 1.23-22.76L1.23-22.76Q1.23-33.16 8.55-40.48L8.55-40.48Q15.87-47.87 26.27-47.87L26.27-47.87Z" transform="translate(157.0859375 54.140625)"/></g></svg></g> <!----></g></svg>