<?xml version="1.0" standalone="no"?>
<!DOCTYPE svg PUBLIC "-//W3C//DTD SVG 1.1//EN" "http://www.w3.org/Graphics/SVG/1.1/DTD/svg11.dtd" [<!ENTITY nbsp " ">]>
<svg xmlns="http://www.w3.org/2000/svg" xmlns:xlink="http://www.w3.org/1999/xlink" data-v-1e121de1="" version="1.0" width="100%" height="100%" viewBox="0 0 340.000000 250.000000" preserveAspectRatio="xMidYMid meet" color-interpolation-filters="sRGB" class="el-tooltip" style="margin: auto;"><rect data-v-1e121de1="" x="0" y="0" width="100%" height="100%" fill="#fff" fill-opacity="1" class="background"/> <rect data-v-1e121de1="" x="0" y="0" width="100%" height="100%" fill="url(#watermark)" fill-opacity="1" class="watermarklayer"/> <g data-v-1e121de1="" fill="#4d4f53" class="icon-text-wrapper icon-svg-group iconsvg" transform="translate(42.17500305175781,36.628440856933594)"><g class="iconsvg-imagesvg" transform="translate(52.824981689453125,0)"><rect fill="#4d4f53" fill-opacity="0" stroke-width="2" x="0" y="0" width="150" height="176.74311926605557" class="image-rect"/> <svg filter="url(#colors9608515287)" x="0" y="0" width="150" height="176.74311926605557" filtersec="colorsf3386964515" class="image-svg-svg primary"><svg xmlns="http://www.w3.org/2000/svg" viewBox="0 0 32.7 38.53"><g><path d="M16.35 3.93l6.53 3.77 6.53 3.77v4.13a23.83 23.83 0 0 1-.25 3.55l-12.8-7.39-1.76 1-1.48.86 15.22 8.79c-1.73 5-5.62 8.68-12 12.35-7.48-4.32-11.54-8.48-12.7-15l13 7.48A9 9 0 0 0 19.09 25L3.3 15.89v-4.43l6.52-3.77M16.35 0l8.17 4.72 8.18 4.72v4c0 14.84-6.48 20.21-16.35 25.09C6.48 33.38 0 28 0 13.44v-4l8.17-4.72z" fill="#e50d00" fill-rule="evenodd"/></g></svg></svg> <defs><filter id="colors9608515287"><feColorMatrix type="matrix" values="0 0 0 0 0.30078125  0 0 0 0 0.30859375  0 0 0 0 0.32421875  0 0 0 1 0" class="icon-fecolormatrix"/></filter> <filter id="colorsf3386964515"><feColorMatrix type="matrix" values="0 0 0 0 0.99609375  0 0 0 0 0.99609375  0 0 0 0 0.99609375  0 0 0 1 0" class="icon-fecolormatrix"/></filter> <filter id="colorsb7804000845"><feColorMatrix type="matrix" values="0 0 0 0 0  0 0 0 0 0  0 0 0 0 0  0 0 0 1 0" class="icon-fecolormatrix"/></filter></defs></g> </g></svg>
