<?xml version="1.0" standalone="no"?>
<!DOCTYPE svg PUBLIC "-//W3C//DTD SVG 1.1//EN" "http://www.w3.org/Graphics/SVG/1.1/DTD/svg11.dtd" [<!ENTITY nbsp " ">]>
<svg data-v-1e121de1="" version="1.0" xmlns="http://www.w3.org/2000/svg" xmlns:xlink="http://www.w3.org/1999/xlink" width="100%" height="100%" viewBox="0 0 340.000000 250.000000" preserveAspectRatio="xMidYMid meet" color-interpolation-filters="sRGB" class="el-tooltip" style="margin: auto;"><rect data-v-1e121de1="" x="0" y="0" width="100%" height="100%" fill="#ffffff" fill-opacity="1" class="background"></rect> <rect data-v-1e121de1="" x="0" y="0" width="100%" height="100%" fill="url(#watermark)" fill-opacity="1" class="watermarklayer"></rect> <g data-v-1e121de1="" class="iconmbgsvg" transform="translate(42.17500305175781,36.628440856933594)"><g fill="#4d4f53" hollow-target="textRect"><g transform="translate(52.824981689453125,0)" mask="url(#683dd38f-1136-4832-9986-965bc6dd055d)"><rect fill="#4d4f53" fill-opacity="0" stroke-width="2" x="0" y="0" width="150" height="176.74311926605557" class="image-rect"></rect> <svg filter="url(#colors2775008635)" x="0" y="0" width="150" height="176.74311926605557" filtersec="colorsf5373290138" class="image-svg-svg primary"><svg xmlns="http://www.w3.org/2000/svg" viewBox="0 0 32.7 38.53"><g><path d="M16.35 3.93l6.53 3.77 6.53 3.77v4.13a23.83 23.83 0 0 1-.25 3.55l-12.8-7.39-1.76 1-1.48.86 15.22 8.79c-1.73 5-5.62 8.68-12 12.35-7.48-4.32-11.54-8.48-12.7-15l13 7.48A9 9 0 0 0 19.09 25L3.3 15.89v-4.43l6.52-3.77M16.35 0l8.17 4.72 8.18 4.72v4c0 14.84-6.48 20.21-16.35 25.09C6.48 33.38 0 28 0 13.44v-4l8.17-4.72z" fill="#e50d00" fill-rule="evenodd"></path></g></svg></svg> <defs><filter id="colors2775008635"><feColorMatrix type="matrix" values="0 0 0 0 0.30078125  0 0 0 0 0.30859375  0 0 0 0 0.32421875  0 0 0 1 0" class="icon-fecolormatrix"></feColorMatrix></filter> <filter id="colorsf5373290138"><feColorMatrix type="matrix" values="0 0 0 0 0.99609375  0 0 0 0 0.99609375  0 0 0 0 0.99609375  0 0 0 1 0" class="icon-fecolormatrix"></feColorMatrix></filter> <filter id="colorsb9380969100"><feColorMatrix type="matrix" values="0 0 0 0 0  0 0 0 0 0  0 0 0 0 0  0 0 0 1 0" class="icon-fecolormatrix"></feColorMatrix></filter></defs></g> <g transform="translate(0,70.53655815124512)"><g fill-rule="" class="tp-name"><g><path d="M6.96-14.78L6.96-0.73L8.43-2.28L17.71-2.28Q18.36-2.28 18.85-2.75Q19.34-3.22 19.34-3.87L19.34-3.87L19.34-16.49L10.38-16.49L9.93-16.45Q9.53-16.45 8.92-16.29Q8.31-16.12 7.76-15.78Q7.21-15.43 6.96-14.78L6.96-14.78ZM21.70 0L21.70 0L2.16 0L2.16-18.89L6.96-18.89L6.96-17.91Q8.35-18.89 10.06-18.89L10.06-18.89L19.42-18.89L19.42-27.20L24.59-27.20L24.51-27.03Q24.14-26.38 24.14-25.16L24.14-25.16L24.14-2.40Q24.14-1.43 23.43-0.71Q22.72 0 21.70 0ZM45.44-16.57L36.85-16.57L36.85-16.57Q36.85-16.57 36.40-16.55Q35.95-16.53 35.36-16.39Q34.77-16.25 34.22-15.88Q33.67-15.51 33.39-14.86L33.39-14.86L33.39-0.73L34.89-2.28L43.81-2.28Q44.46-2.28 44.95-2.75Q45.44-3.22 45.44-3.87L45.44-3.87L45.44-16.57ZM28.62 0L28.62-19.01L28.62-19.01L33.39-19.01L33.39-18.00Q34.40-18.69 35.34-18.85Q36.28-19.01 36.73-19.01L36.73-19.01Q36.77-19.01 36.81-19.01L36.81-19.01L51.02-19.01Q51.02-19.01 50.83-18.79Q50.65-18.57 50.45-18.10Q50.24-17.63 50.24-16.86L50.24-16.86L50.24-2.40Q50.24-1.43 49.51-0.71Q48.78 0 47.76 0L47.76 0L28.62 0ZM71.98-16.57L63.39-16.57L63.39-16.57Q63.39-16.57 62.95-16.55Q62.50-16.53 61.91-16.39Q61.32-16.25 60.77-15.88Q60.22-15.51 59.93-14.86L59.93-14.86L59.93-0.73L61.44-2.28L70.36-2.28Q71.01-2.28 71.50-2.75Q71.98-3.22 71.98-3.87L71.98-3.87L71.98-16.57ZM55.17 0L55.17-19.01L55.17-19.01L59.93-19.01L59.93-18.00Q60.95-18.69 61.89-18.85Q62.82-19.01 63.27-19.01L63.27-19.01Q63.31-19.01 63.35-19.01L63.35-19.01L77.56-19.01Q77.56-19.01 77.38-18.79Q77.20-18.57 76.99-18.10Q76.79-17.63 76.79-16.86L76.79-16.86L76.79-2.40Q76.79-1.43 76.06-0.71Q75.32 0 74.31 0L74.31 0L55.17 0ZM100.40-16.53L88.88-16.53L88.88-16.53Q88.88-16.53 88.58-16.53Q88.27-16.53 87.84-16.41Q87.42-16.29 87.01-16.00Q86.60-15.72 86.32-15.19L86.32-15.19L86.32-15.06L86.32 0L81.55 0L81.55-19.05L86.32-19.05L86.32-18.12Q87.05-18.73 87.97-18.89Q88.88-19.05 89.33-19.05L89.33-19.05Q89.37-19.05 89.37-19.05L89.37-19.05L98.82-19.05L99.18-19.54L102.40-19.54L100.40-16.53ZM106.14 0L106.14-27.28L106.14-27.28L111.23-27.28Q111.23-27.28 111.11-27.08Q110.99-26.87 110.87-26.42Q110.75-25.98 110.75-25.24L110.75-25.24Q110.75-24.80 110.75-20.74Q110.75-16.69 110.75-11.77L110.75-11.77L126.79-19.01L126.79-14.33L119.21-10.91L126.75-5.37L126.75 0L114.61-8.88L110.79-7.13Q110.79-4.03 110.79-2.02Q110.79 0 110.79 0L110.79 0L106.14 0ZM145.23-16.41L137.98-16.41L137.98-16.41Q137.98-16.41 137.72-16.37Q137.45-16.33 137.07-16.20Q136.68-16.08 136.25-15.80Q135.83-15.51 135.54-15.02L135.54-15.02L135.54-14.90L135.54-8.22L137.01-9.73L146.37-9.73Q147.06-9.73 147.43-10.22Q147.80-10.71 147.80-11.36L147.80-11.36L147.80-16.41L145.23-16.41L145.23-16.41ZM130.65 0L130.65-18.93L130.65-18.93L135.54-18.93L135.54-18.08Q136.15-18.69 136.88-18.81Q137.62-18.93 138.02-18.93L138.02-18.93Q138.11-18.93 138.19-18.93L138.19-18.93L145.23-18.93L145.23-18.93L153.17-18.93Q153.17-18.93 153.07-18.71Q152.97-18.48 152.84-18.00Q152.72-17.51 152.72-16.73L152.72-16.73L152.72-9.77Q152.72-8.75 152.07-8.02Q151.42-7.29 150.40-7.29L150.40-7.29L135.54-7.29L135.54-0.77L137.01-2.44L153.05-2.44L153.05 0L130.65 0ZM171.86-16.41L164.61-16.41L164.61-16.41Q164.61-16.41 164.35-16.37Q164.08-16.33 163.70-16.20Q163.31-16.08 162.88-15.80Q162.45-15.51 162.17-15.02L162.17-15.02L162.17-14.90L162.17-8.22L163.63-9.73L173.00-9.73Q173.69-9.73 174.06-10.22Q174.42-10.71 174.42-11.36L174.42-11.36L174.42-16.41L171.86-16.41L171.86-16.41ZM157.28 0L157.28-18.93L157.28-18.93L162.17-18.93L162.17-18.08Q162.78-18.69 163.51-18.81Q164.24-18.93 164.65-18.93L164.65-18.93Q164.73-18.93 164.82-18.93L164.82-18.93L171.86-18.93L171.86-18.93L179.80-18.93Q179.80-18.93 179.70-18.71Q179.59-18.48 179.47-18.00Q179.35-17.51 179.35-16.73L179.35-16.73L179.35-9.77Q179.35-8.75 178.70-8.02Q178.05-7.29 177.03-7.29L177.03-7.29L162.17-7.29L162.17-0.77L163.63-2.44L179.68-2.44L179.68 0L157.28 0ZM200.93-3.71L200.93-6.11L200.93-6.11L200.93-16.45L192.38-16.45Q192.38-16.45 191.93-16.43Q191.48-16.41 190.89-16.25Q190.30-16.08 189.75-15.74Q189.20-15.39 188.96-14.74L188.96-14.74L188.96-0.69L190.14-2.04L196.41-2.04L196.41-2.04L199.50-2.08Q200.20-2.08 200.56-2.54Q200.93-3.01 200.93-3.71L200.93-3.71ZM192.34-18.85L206.51-18.85L206.51-18.85Q206.51-18.85 206.30-18.65Q206.10-18.44 205.92-17.98Q205.73-17.51 205.73-16.73L205.73-16.73L205.73-5.54L205.73-2.12Q205.69-1.06 205.06-0.35Q204.43 0.37 203.41 0.41L203.41 0.41L197.75 0.41L196.41 0.41L188.96 0.41L188.96 8.39L184.15 8.39L184.15-18.85L188.96-18.85L188.96-17.87Q189.94-18.57 190.87-18.73Q191.81-18.89 192.26-18.85L192.26-18.85Q192.30-18.85 192.34-18.85L192.34-18.85ZM225.03-16.41L217.79-16.41L217.79-16.41Q217.79-16.41 217.52-16.37Q217.26-16.33 216.87-16.20Q216.48-16.08 216.06-15.80Q215.63-15.51 215.34-15.02L215.34-15.02L215.34-14.90L215.34-8.22L216.81-9.73L226.17-9.73Q226.86-9.73 227.23-10.22Q227.60-10.71 227.60-11.36L227.60-11.36L227.60-16.41L225.03-16.41L225.03-16.41ZM210.46 0L210.46-18.93L210.46-18.93L215.34-18.93L215.34-18.08Q215.95-18.69 216.69-18.81Q217.42-18.93 217.83-18.93L217.83-18.93Q217.91-18.93 217.99-18.93L217.99-18.93L225.03-18.93L225.03-18.93L232.97-18.93Q232.97-18.93 232.87-18.71Q232.77-18.48 232.65-18.00Q232.52-17.51 232.52-16.73L232.52-16.73L232.52-9.77Q232.52-8.75 231.87-8.02Q231.22-7.29 230.20-7.29L230.20-7.29L215.34-7.29L215.34-0.77L216.81-2.44L232.85-2.44L232.85 0L210.46 0ZM255.81-16.53L244.29-16.53L244.29-16.53Q244.29-16.53 243.99-16.53Q243.68-16.53 243.25-16.41Q242.83-16.29 242.42-16.00Q242.01-15.72 241.73-15.19L241.73-15.19L241.73-15.06L241.73 0L236.96 0L236.96-19.05L241.73-19.05L241.73-18.12Q242.46-18.73 243.37-18.89Q244.29-19.05 244.74-19.05L244.74-19.05Q244.78-19.05 244.78-19.05L244.78-19.05L254.23-19.05L254.59-19.54L257.81-19.54L255.81-16.53Z" transform="translate(-2.157904053814834, 27.27916445388564)"></path></g> <!----> <!----> <!----> <!----> <!----> <!----> <!----></g> <!----></g></g></g><mask id="683dd38f-1136-4832-9986-965bc6dd055d"><g fill="white"><rect fill-opacity="1" stroke-width="2" x="0" y="0" width="150" height="176.74311926605557" class="image-rect"></rect> <svg x="0" y="0" width="150" height="176.74311926605557" class="image-svg-svg primary" filter="url(#colorsf5373290138)"><svg xmlns="http://www.w3.org/2000/svg" viewBox="0 0 32.7 38.53"><g><path d="M16.35 3.93l6.53 3.77 6.53 3.77v4.13a23.83 23.83 0 0 1-.25 3.55l-12.8-7.39-1.76 1-1.48.86 15.22 8.79c-1.73 5-5.62 8.68-12 12.35-7.48-4.32-11.54-8.48-12.7-15l13 7.48A9 9 0 0 0 19.09 25L3.3 15.89v-4.43l6.52-3.77M16.35 0l8.17 4.72 8.18 4.72v4c0 14.84-6.48 20.21-16.35 25.09C6.48 33.38 0 28 0 13.44v-4l8.17-4.72z" fill-rule="evenodd"></path></g></svg></svg> <defs>  </defs></g> <rect fill="#000" fill-opacity="1" x="-56.324981689453125" y="67.03655815124512" width="262.6499938964844" height="42.67000198364258"></rect><g transform="translate(-52.824981689453125,70.53655815124512)" fill="black"><g fill-rule="" class="tp-name"><g><path d="M6.96-14.78L6.96-0.73L8.43-2.28L17.71-2.28Q18.36-2.28 18.85-2.75Q19.34-3.22 19.34-3.87L19.34-3.87L19.34-16.49L10.38-16.49L9.93-16.45Q9.53-16.45 8.92-16.29Q8.31-16.12 7.76-15.78Q7.21-15.43 6.96-14.78L6.96-14.78ZM21.70 0L21.70 0L2.16 0L2.16-18.89L6.96-18.89L6.96-17.91Q8.35-18.89 10.06-18.89L10.06-18.89L19.42-18.89L19.42-27.20L24.59-27.20L24.51-27.03Q24.14-26.38 24.14-25.16L24.14-25.16L24.14-2.40Q24.14-1.43 23.43-0.71Q22.72 0 21.70 0ZM45.44-16.57L36.85-16.57L36.85-16.57Q36.85-16.57 36.40-16.55Q35.95-16.53 35.36-16.39Q34.77-16.25 34.22-15.88Q33.67-15.51 33.39-14.86L33.39-14.86L33.39-0.73L34.89-2.28L43.81-2.28Q44.46-2.28 44.95-2.75Q45.44-3.22 45.44-3.87L45.44-3.87L45.44-16.57ZM28.62 0L28.62-19.01L28.62-19.01L33.39-19.01L33.39-18.00Q34.40-18.69 35.34-18.85Q36.28-19.01 36.73-19.01L36.73-19.01Q36.77-19.01 36.81-19.01L36.81-19.01L51.02-19.01Q51.02-19.01 50.83-18.79Q50.65-18.57 50.45-18.10Q50.24-17.63 50.24-16.86L50.24-16.86L50.24-2.40Q50.24-1.43 49.51-0.71Q48.78 0 47.76 0L47.76 0L28.62 0ZM71.98-16.57L63.39-16.57L63.39-16.57Q63.39-16.57 62.95-16.55Q62.50-16.53 61.91-16.39Q61.32-16.25 60.77-15.88Q60.22-15.51 59.93-14.86L59.93-14.86L59.93-0.73L61.44-2.28L70.36-2.28Q71.01-2.28 71.50-2.75Q71.98-3.22 71.98-3.87L71.98-3.87L71.98-16.57ZM55.17 0L55.17-19.01L55.17-19.01L59.93-19.01L59.93-18.00Q60.95-18.69 61.89-18.85Q62.82-19.01 63.27-19.01L63.27-19.01Q63.31-19.01 63.35-19.01L63.35-19.01L77.56-19.01Q77.56-19.01 77.38-18.79Q77.20-18.57 76.99-18.10Q76.79-17.63 76.79-16.86L76.79-16.86L76.79-2.40Q76.79-1.43 76.06-0.71Q75.32 0 74.31 0L74.31 0L55.17 0ZM100.40-16.53L88.88-16.53L88.88-16.53Q88.88-16.53 88.58-16.53Q88.27-16.53 87.84-16.41Q87.42-16.29 87.01-16.00Q86.60-15.72 86.32-15.19L86.32-15.19L86.32-15.06L86.32 0L81.55 0L81.55-19.05L86.32-19.05L86.32-18.12Q87.05-18.73 87.97-18.89Q88.88-19.05 89.33-19.05L89.33-19.05Q89.37-19.05 89.37-19.05L89.37-19.05L98.82-19.05L99.18-19.54L102.40-19.54L100.40-16.53ZM106.14 0L106.14-27.28L106.14-27.28L111.23-27.28Q111.23-27.28 111.11-27.08Q110.99-26.87 110.87-26.42Q110.75-25.98 110.75-25.24L110.75-25.24Q110.75-24.80 110.75-20.74Q110.75-16.69 110.75-11.77L110.75-11.77L126.79-19.01L126.79-14.33L119.21-10.91L126.75-5.37L126.75 0L114.61-8.88L110.79-7.13Q110.79-4.03 110.79-2.02Q110.79 0 110.79 0L110.79 0L106.14 0ZM145.23-16.41L137.98-16.41L137.98-16.41Q137.98-16.41 137.72-16.37Q137.45-16.33 137.07-16.20Q136.68-16.08 136.25-15.80Q135.83-15.51 135.54-15.02L135.54-15.02L135.54-14.90L135.54-8.22L137.01-9.73L146.37-9.73Q147.06-9.73 147.43-10.22Q147.80-10.71 147.80-11.36L147.80-11.36L147.80-16.41L145.23-16.41L145.23-16.41ZM130.65 0L130.65-18.93L130.65-18.93L135.54-18.93L135.54-18.08Q136.15-18.69 136.88-18.81Q137.62-18.93 138.02-18.93L138.02-18.93Q138.11-18.93 138.19-18.93L138.19-18.93L145.23-18.93L145.23-18.93L153.17-18.93Q153.17-18.93 153.07-18.71Q152.97-18.48 152.84-18.00Q152.72-17.51 152.72-16.73L152.72-16.73L152.72-9.77Q152.72-8.75 152.07-8.02Q151.42-7.29 150.40-7.29L150.40-7.29L135.54-7.29L135.54-0.77L137.01-2.44L153.05-2.44L153.05 0L130.65 0ZM171.86-16.41L164.61-16.41L164.61-16.41Q164.61-16.41 164.35-16.37Q164.08-16.33 163.70-16.20Q163.31-16.08 162.88-15.80Q162.45-15.51 162.17-15.02L162.17-15.02L162.17-14.90L162.17-8.22L163.63-9.73L173.00-9.73Q173.69-9.73 174.06-10.22Q174.42-10.71 174.42-11.36L174.42-11.36L174.42-16.41L171.86-16.41L171.86-16.41ZM157.28 0L157.28-18.93L157.28-18.93L162.17-18.93L162.17-18.08Q162.78-18.69 163.51-18.81Q164.24-18.93 164.65-18.93L164.65-18.93Q164.73-18.93 164.82-18.93L164.82-18.93L171.86-18.93L171.86-18.93L179.80-18.93Q179.80-18.93 179.70-18.71Q179.59-18.48 179.47-18.00Q179.35-17.51 179.35-16.73L179.35-16.73L179.35-9.77Q179.35-8.75 178.70-8.02Q178.05-7.29 177.03-7.29L177.03-7.29L162.17-7.29L162.17-0.77L163.63-2.44L179.68-2.44L179.68 0L157.28 0ZM200.93-3.71L200.93-6.11L200.93-6.11L200.93-16.45L192.38-16.45Q192.38-16.45 191.93-16.43Q191.48-16.41 190.89-16.25Q190.30-16.08 189.75-15.74Q189.20-15.39 188.96-14.74L188.96-14.74L188.96-0.69L190.14-2.04L196.41-2.04L196.41-2.04L199.50-2.08Q200.20-2.08 200.56-2.54Q200.93-3.01 200.93-3.71L200.93-3.71ZM192.34-18.85L206.51-18.85L206.51-18.85Q206.51-18.85 206.30-18.65Q206.10-18.44 205.92-17.98Q205.73-17.51 205.73-16.73L205.73-16.73L205.73-5.54L205.73-2.12Q205.69-1.06 205.06-0.35Q204.43 0.37 203.41 0.41L203.41 0.41L197.75 0.41L196.41 0.41L188.96 0.41L188.96 8.39L184.15 8.39L184.15-18.85L188.96-18.85L188.96-17.87Q189.94-18.57 190.87-18.73Q191.81-18.89 192.26-18.85L192.26-18.85Q192.30-18.85 192.34-18.85L192.34-18.85ZM225.03-16.41L217.79-16.41L217.79-16.41Q217.79-16.41 217.52-16.37Q217.26-16.33 216.87-16.20Q216.48-16.08 216.06-15.80Q215.63-15.51 215.34-15.02L215.34-15.02L215.34-14.90L215.34-8.22L216.81-9.73L226.17-9.73Q226.86-9.73 227.23-10.22Q227.60-10.71 227.60-11.36L227.60-11.36L227.60-16.41L225.03-16.41L225.03-16.41ZM210.46 0L210.46-18.93L210.46-18.93L215.34-18.93L215.34-18.08Q215.95-18.69 216.69-18.81Q217.42-18.93 217.83-18.93L217.83-18.93Q217.91-18.93 217.99-18.93L217.99-18.93L225.03-18.93L225.03-18.93L232.97-18.93Q232.97-18.93 232.87-18.71Q232.77-18.48 232.65-18.00Q232.52-17.51 232.52-16.73L232.52-16.73L232.52-9.77Q232.52-8.75 231.87-8.02Q231.22-7.29 230.20-7.29L230.20-7.29L215.34-7.29L215.34-0.77L216.81-2.44L232.85-2.44L232.85 0L210.46 0ZM255.81-16.53L244.29-16.53L244.29-16.53Q244.29-16.53 243.99-16.53Q243.68-16.53 243.25-16.41Q242.83-16.29 242.42-16.00Q242.01-15.72 241.73-15.19L241.73-15.19L241.73-15.06L241.73 0L236.96 0L236.96-19.05L241.73-19.05L241.73-18.12Q242.46-18.73 243.37-18.89Q244.29-19.05 244.74-19.05L244.74-19.05Q244.78-19.05 244.78-19.05L244.78-19.05L254.23-19.05L254.59-19.54L257.81-19.54L255.81-16.53Z" transform="translate(-2.157904053814834, 27.27916445388564)"></path></g>       </g> </g></mask></svg>